<svg width="71" height="71" viewBox="0 0 71 71" fill="none" xmlns="http://www.w3.org/2000/svg">
<g id="icone-arrow" clip-path="url(#clip0_22_88)">
<g id="arrow" filter="url(#filter0_d_22_88)">
<path d="M0.867675 34.3229C1.09943 25.1556 4.88801 16.6262 11.5356 10.3085C18.181 3.98982 26.8903 0.635939 36.0574 0.867575C45.2247 1.09933 53.7541 4.88794 60.0728 11.5355C66.3916 18.181 69.7445 26.891 69.5127 36.0583C69.2809 45.2254 65.4923 53.7542 58.8448 60.0717C52.1994 66.3905 43.4894 69.7444 34.322 69.5126C25.1549 69.2808 16.6262 65.4922 10.3076 58.8447C3.98891 52.1993 0.636039 43.4901 0.867675 34.3229ZM5.1583 34.4314C4.95562 42.453 7.88912 50.0721 13.4185 55.8872C18.9467 61.7044 26.4089 65.0191 34.4305 65.222C42.4523 65.4248 50.0731 62.4913 55.8883 56.9619C61.7044 51.4325 65.0192 43.9714 65.2221 35.9498C65.4249 27.928 62.4914 20.3082 56.9619 14.493C51.4336 8.67572 43.9707 5.36099 35.9489 5.1582C27.9273 4.95552 20.3072 7.88903 14.4921 13.4184C8.67586 18.9478 5.36109 26.4096 5.1583 34.4314ZM14.8832 29.2507C14.9138 28.6825 15.1693 28.1493 15.5927 27.7691C16.0162 27.3892 16.574 27.1935 17.1421 27.2241C17.71 27.2549 18.2427 27.5095 18.6227 27.9327L34.8508 46.0097L51.9715 28.7748C52.2743 28.4701 52.6618 28.2637 53.0835 28.1816C53.5052 28.0994 53.9423 28.145 54.3374 28.3139C54.7324 28.4828 55.0675 28.767 55.2995 29.1285C55.5316 29.4901 55.6501 29.9131 55.6391 30.3426C55.6257 30.8712 55.4179 31.3959 55.0161 31.7999L36.2936 50.6453C36.0878 50.8523 35.8423 51.0156 35.5713 51.1243C35.3003 51.233 35.0095 51.2859 34.7176 51.2785C34.4256 51.2711 34.1379 51.2036 33.8727 51.0813C33.6076 50.9591 33.3706 50.7836 33.1755 50.5665L15.4292 30.7992C15.0493 30.3757 14.8525 29.8188 14.8832 29.2507Z" fill="white"/>
</g>
</g>
<defs>
<filter id="filter0_d_22_88" x="-3.14355" y="-3.14368" width="76.668" height="76.6675" filterUnits="userSpaceOnUse" color-interpolation-filters="sRGB">
<feFlood flood-opacity="0" result="BackgroundImageFix"/>
<feColorMatrix in="SourceAlpha" type="matrix" values="0 0 0 0 0 0 0 0 0 0 0 0 0 0 0 0 0 0 127 0" result="hardAlpha"/>
<feOffset/>
<feGaussianBlur stdDeviation="2"/>
<feComposite in2="hardAlpha" operator="out"/>
<feColorMatrix type="matrix" values="0 0 0 0 1 0 0 0 0 1 0 0 0 0 1 0 0 0 0.55 0"/>
<feBlend mode="normal" in2="BackgroundImageFix" result="effect1_dropShadow_22_88"/>
<feBlend mode="normal" in="SourceGraphic" in2="effect1_dropShadow_22_88" result="shape"/>
</filter>
<clipPath id="clip0_22_88">
<rect width="68.6669" height="68.6669" fill="white" transform="translate(0 68.645) rotate(-88.5518)"/>
</clipPath>
</defs>
</svg>
