<svg width="70" height="70" viewBox="0 0 70 70" fill="none" xmlns="http://www.w3.org/2000/svg">
<g id="icone-arrow" clip-path="url(#clip0_22_88)">
<g id="arrow" filter="url(#filter0_d_22_88)">
<path d="M69.5234 35.1898C69.5234 44.36 65.9516 52.9825 59.4658 59.4661C52.9823 65.9507 44.3605 69.5236 35.1904 69.5237C26.0202 69.5237 17.3978 65.9519 10.9131 59.4661C4.42836 52.9825 0.856443 44.36 0.856444 35.1898C0.856559 26.0197 4.4284 17.3979 10.9141 10.9144C17.3977 4.42964 26.0202 0.856749 35.1904 0.856749C44.3605 0.856862 52.9822 4.4287 59.4668 10.9144C65.9514 17.3979 69.5233 26.0197 69.5234 35.1898ZM65.2314 35.1898C65.2313 27.1656 62.1062 19.623 56.4316 13.9495C50.7581 8.27391 43.2146 5.14885 35.1904 5.14874C27.1661 5.14874 19.6218 8.27387 13.9482 13.9485C8.2737 19.6231 5.14855 27.1656 5.14844 35.1898C5.14844 43.2141 8.27357 50.7574 13.9482 56.431C19.6218 62.1067 27.1661 65.2317 35.1904 65.2317C43.2146 65.2316 50.7581 62.1065 56.4316 56.4319C62.1063 50.7573 65.2314 43.2141 65.2314 35.1898ZM55.6406 40.6146C55.6243 41.1834 55.3824 41.7229 54.9687 42.1136C54.555 42.5041 54.0023 42.7139 53.4336 42.6976C52.8651 42.6812 52.3261 42.4401 51.9355 42.0267L35.2559 24.3655L18.5762 42.0276C18.2812 42.3399 17.8989 42.556 17.4795 42.6487C17.06 42.7415 16.6219 42.707 16.2227 42.5482C15.8235 42.3893 15.4814 42.1137 15.2402 41.7581C14.9991 41.4025 14.87 40.9827 14.8701 40.553C14.8701 40.0242 15.0646 39.4945 15.4561 39.0804L33.6963 19.7679C33.8969 19.5558 34.1382 19.3863 34.4062 19.2708C34.6745 19.1553 34.9638 19.095 35.2559 19.095C35.5479 19.095 35.8372 19.1553 36.1055 19.2708C36.3736 19.3863 36.6149 19.5557 36.8154 19.7679L55.0557 39.0804C55.4461 39.4941 55.6569 40.0459 55.6406 40.6146Z" fill="white"/>
</g>
</g>
<defs>
<filter id="filter0_d_22_88" x="-3.14355" y="-3.14325" width="76.667" height="76.667" filterUnits="userSpaceOnUse" color-interpolation-filters="sRGB">
<feFlood flood-opacity="0" result="BackgroundImageFix"/>
<feColorMatrix in="SourceAlpha" type="matrix" values="0 0 0 0 0 0 0 0 0 0 0 0 0 0 0 0 0 0 127 0" result="hardAlpha"/>
<feOffset/>
<feGaussianBlur stdDeviation="2"/>
<feComposite in2="hardAlpha" operator="out"/>
<feColorMatrix type="matrix" values="0 0 0 0 1 0 0 0 0 1 0 0 0 0 1 0 0 0 0.55 0"/>
<feBlend mode="normal" in2="BackgroundImageFix" result="effect1_dropShadow_22_88"/>
<feBlend mode="normal" in="SourceGraphic" in2="effect1_dropShadow_22_88" result="shape"/>
</filter>
<clipPath id="clip0_22_88">
<rect width="68.6669" height="68.6669" fill="white" transform="translate(69.5234 0.85675) rotate(90)"/>
</clipPath>
</defs>
</svg>
